<svg width="169" height="50" viewBox="0 0 169 50" fill="none" xmlns="http://www.w3.org/2000/svg">
<path d="M46.7363 37.287C48.8251 33.6173 50 29.4233 50 24.9672C50 20.5111 48.8251 16.2516 46.7363 12.6474C46.671 12.5164 46.6057 12.4509 46.5405 12.3853C42.2324 4.98034 34.2037 0 25 0C15.8616 0 7.8329 4.98034 3.45953 12.3853C3.39426 12.4509 3.32898 12.5819 3.26371 12.6474C1.17493 16.2516 0 20.4456 0 24.9672C0 38.7942 11.1619 50 24.9347 50C34.0731 50 42.1018 45.0197 46.4752 37.6147C46.6057 37.4836 46.671 37.4181 46.7363 37.287ZM2.54569 26.1468H10.9661C11.0966 29.4233 11.7493 32.6343 12.7937 35.6488H5.15666C3.65535 32.7654 2.74151 29.5544 2.54569 26.1468ZM5.15666 14.2857H12.7937C11.6841 17.3001 11.0966 20.4456 10.9661 23.7222H2.54569C2.74151 20.3145 3.65535 17.1035 5.15666 14.2857ZM47.5196 23.7222H39.2298C39.0992 20.4456 38.4465 17.3001 37.4021 14.2857H44.9086C46.4099 17.1035 47.3238 20.3145 47.5196 23.7222ZM36.8146 23.7222H26.2402V14.2857H34.7911C35.9661 17.2346 36.6841 20.3801 36.8146 23.7222ZM26.2402 11.8611V2.68676C29.3734 5.24246 31.9191 8.32241 33.6815 11.7955H26.2402V11.8611ZM23.8251 2.81782V11.7955H16.5144C18.2768 8.38794 20.7572 5.37353 23.8251 2.81782ZM23.8251 14.2857V23.7222H13.3812C13.5118 20.4456 14.2298 17.2346 15.4047 14.2857H23.8251ZM13.3812 26.1468H23.8251V35.6488H15.4047C14.2298 32.6343 13.5118 29.4233 13.3812 26.1468ZM23.8251 38.0734V47.0511C20.7572 44.5609 18.2768 41.481 16.5144 38.0734H23.8251ZM26.2402 47.1822V38.0734H33.6815C31.8538 41.5465 29.3734 44.6265 26.2402 47.1822ZM26.2402 35.6488V26.1468H36.8146C36.6841 29.4889 35.9661 32.6999 34.7911 35.6488H26.2402ZM39.2298 26.1468H47.5196C47.3238 29.5544 46.4099 32.8309 44.8433 35.6488H37.4021C38.4465 32.6343 39.0992 29.4233 39.2298 26.1468ZM43.4073 11.8611H36.3577C34.8564 8.58453 32.7024 5.50459 30.0914 2.94889C35.5091 4.19397 40.2089 7.40498 43.4073 11.8611ZM20.1697 2.88336C17.4935 5.50459 15.4047 8.519 13.8381 11.8611H6.65796C9.8564 7.33945 14.6214 4.06291 20.1697 2.88336ZM6.65796 38.0734H13.7728C15.3394 41.4155 17.4282 44.4299 20.1044 47.0511C14.6214 45.806 9.8564 42.5295 6.65796 38.0734ZM30.0914 46.9856C32.7024 44.3644 34.8564 41.3499 36.3577 38.0734H43.342C40.2089 42.464 35.5091 45.7405 30.0914 46.9856Z" fill="url(#paint0_linear_4_6)"/>
<path d="M17.7163 32.7439C17.6293 32.9664 17.6603 33.0936 17.6603 33.0936L17.7742 34.7447C17.7176 37.0038 16.7326 37.7424 16.7326 37.7424L18.1259 46.7418C16.5412 46.1689 15.0556 45.4012 13.6967 44.4719L13.1173 37.9785C13.1173 37.9785 12.806 37.8209 12.1868 37.5348C11.569 37.2493 10.9215 36.4471 10.7565 36.1725C10.5948 35.8972 10.2121 35.1275 9.28166 34.4227C8.35324 33.7172 8.26363 34.0541 8.01839 33.6259C7.7718 33.1991 8.38962 32.9299 8.38962 32.9299C8.38962 32.9299 10.1063 32.5937 11.5569 34.4105C11.5569 34.4105 11.6007 34.399 11.6788 34.3882L11.699 34.3192C11.6815 34.3212 11.6714 34.3212 11.6714 34.3212C11.6809 34.3199 11.6896 34.3192 11.6997 34.3185L11.7866 34.0243C11.7866 34.0243 11.79 33.9783 11.7947 33.9053C12.2583 33.8958 13.9399 33.9702 14.6494 35.4806C14.6938 35.5523 14.739 35.6253 14.7828 35.7031C14.7828 35.7031 14.6494 33.5867 11.7954 33.8999C11.8095 33.6719 11.8351 33.189 11.8082 32.959C11.7718 32.6533 11.6398 32.359 11.6398 32.359L10.1697 28.879C10.1697 28.879 9.88937 28.2926 10.4095 28.0179C10.929 27.7433 11.2126 28.2161 11.2126 28.2161C11.2126 28.2161 12.7703 31.3417 12.9461 31.7286C13.122 32.1148 13.3565 31.6157 13.3565 31.6157L12.7952 27.4389C12.7952 27.4389 12.6335 26.7565 13.3632 26.6036C14.0929 26.4521 14.1569 27.5377 14.1569 27.5377C14.1569 27.5377 14.648 31.1334 14.7141 31.5507C14.7808 31.9674 15.0085 31.5649 15.0085 31.5649C15.0085 31.5649 15.5576 28.1065 15.6108 27.7406C15.666 27.374 15.7792 26.9689 16.3182 26.9864C16.8572 27.0034 16.7831 28.1701 16.7831 28.1701C16.7831 28.1701 16.3715 31.6799 16.3533 31.943C16.3358 32.2068 16.5076 32.1372 16.5076 32.1372C16.5076 32.1372 17.8126 29.4357 17.919 29.2436C18.0268 29.0501 18.2364 28.6328 18.7659 28.8479C19.2948 29.0616 18.7693 30.2352 18.7693 30.2352C18.7693 30.2352 17.8045 32.5227 17.7163 32.7439ZM41.5897 30.9109C41.1423 30.6031 40.862 30.9481 40.7239 31.103C40.5858 31.2592 38.8273 33.5001 38.8273 33.5001C38.8273 33.5001 38.6542 33.5285 38.7242 33.2891C38.7943 33.0483 39.8891 29.878 39.8891 29.878C39.8891 29.878 40.1937 28.8093 39.6985 28.6822C39.2033 28.555 39.0153 28.9088 38.8886 29.2368C38.7667 29.5642 37.5546 32.6607 37.5546 32.6607C37.5546 32.6607 37.2595 32.9881 37.2851 32.5897C37.308 32.1893 37.5822 28.7518 37.5822 28.7518C37.5822 28.7518 37.7439 27.7318 37.0358 27.723C36.3264 27.7156 36.3412 28.3818 36.3412 28.3818L36.0118 32.3705C36.0118 32.3705 35.6917 32.7865 35.6075 32.3922C35.5233 31.9965 34.7128 28.7782 34.7128 28.7782C34.7128 28.7782 34.547 28.2804 34.0087 28.4292C33.4704 28.5773 33.6112 29.1786 33.6112 29.1786L34.2681 32.7074C34.2681 32.7074 34.3314 33.0063 34.3031 33.2979C34.2823 33.5116 34.1657 33.9371 34.1044 34.1515C36.7178 34.4795 36.4207 36.4228 36.4207 36.4228C36.3958 36.341 36.3682 36.2632 36.3405 36.1867C36.0104 34.7345 34.6238 34.2827 34.101 34.1623C34.0808 34.234 34.0667 34.2807 34.0667 34.2807L33.9258 34.5357C33.9157 34.5343 33.9083 34.5336 33.8969 34.5323C33.8969 34.5323 33.9083 34.5336 33.9258 34.5363L33.8928 34.5965C33.818 34.5911 33.7743 34.5918 33.7743 34.5918C32.798 32.6086 31.1379 32.5694 31.1379 32.5694C31.1379 32.5694 30.5086 32.6938 30.6501 33.1396C30.7909 33.588 30.9439 33.2945 31.6621 34.1379C32.3816 34.9821 32.5804 35.7748 32.6754 36.063C32.7717 36.3511 33.209 37.2297 33.7257 37.6193C34.2412 38.011 34.4979 38.222 34.4979 38.222L33.5041 46.0276C34.9863 45.3282 36.3614 44.4509 37.6045 43.4268L37.8962 38.7428C37.8962 38.7428 38.9601 38.2606 39.4714 36.1759L39.7005 34.6216C39.7005 34.6216 39.6978 34.4971 39.8251 34.3091C39.9511 34.1204 41.3107 32.1974 41.3107 32.1974C41.3107 32.1974 42.0377 31.2173 41.5897 30.9109ZM34.2984 18.5694C33.4845 18.1216 33.0641 18.7541 32.8532 19.0442C32.643 19.3337 30.0175 23.4462 30.0175 23.4462C30.0175 23.4462 29.7277 23.5253 29.8073 23.104C29.8854 22.6812 31.2248 17.0928 31.2248 17.0928C31.2248 17.0928 31.5657 15.2219 30.7 15.0894C29.8342 14.9582 29.5708 15.5906 29.4138 16.1709C29.2561 16.7506 27.7072 22.2334 27.7072 22.2334C27.7072 22.2334 27.2605 22.8402 27.2349 22.1543C27.2093 21.4684 27.1042 15.5642 27.1042 15.5642C27.1042 15.5642 27.2093 13.7975 26.0006 13.903C24.7926 14.0085 24.924 15.1428 24.924 15.1428L25.0284 21.996C25.0284 21.996 24.5554 22.7597 24.3452 22.1015C24.1357 21.4421 22.2189 16.0911 22.2189 16.0911C22.2189 16.0911 21.851 15.2734 20.9583 15.6163C20.0656 15.9592 20.4065 16.961 20.4065 16.961L22.1138 22.8659C22.1138 22.8659 22.2708 23.3671 22.2708 23.8669C22.2708 24.3681 22.0343 25.5809 22.0343 25.5809L22.0107 25.6357C26.6642 25.6905 26.4722 29.1245 26.4722 29.1245C26.417 28.9926 26.3611 28.8695 26.3024 28.7464C25.4555 26.1815 22.7788 25.7243 22.0067 25.6452L21.8375 26.0388C21.8214 26.0388 21.8065 26.0381 21.7904 26.0381C21.7904 26.0381 21.8065 26.0388 21.8369 26.0408L21.7904 26.1484C21.6624 26.1525 21.5889 26.1619 21.5889 26.1619C19.5946 22.945 16.7582 23.156 16.7582 23.156C16.7582 23.156 15.7078 23.4726 16.0252 24.2105C16.3405 24.9485 16.55 24.4222 17.9157 25.7392C19.2807 27.0575 19.7537 28.3758 19.9639 28.8499C20.1741 29.3254 21.0668 30.7485 22.012 31.3275C22.956 31.9079 23.4296 32.2244 23.4296 32.2244L22.9768 47.8349C23.6277 47.8985 24.2879 47.9316 24.9563 47.9316C26.6407 47.9316 28.2758 47.7246 29.8349 47.3371L29.3107 32.541C29.3107 32.541 31.0442 31.5399 31.5691 27.9016L31.6998 25.2123C31.6998 25.2123 31.6742 25.0012 31.8561 24.6583C32.0407 24.3167 34.0357 20.8103 34.0357 20.8103C34.0357 20.8103 35.1116 19.0179 34.2984 18.5694Z" fill="#9D8DFF"/>
<path d="M63.68 35.216C62.336 35.216 61.168 35.024 60.176 34.64C59.2 34.256 58.456 33.744 57.944 33.104C57.432 32.464 57.176 31.776 57.176 31.04C57.176 30.432 57.336 29.968 57.656 29.648C57.976 29.312 58.464 29.144 59.12 29.144C59.12 30.504 59.528 31.544 60.344 32.264C61.16 32.968 62.304 33.32 63.776 33.32C65.184 33.32 66.264 33.088 67.016 32.624C67.768 32.144 68.144 31.44 68.144 30.512C68.144 29.952 68 29.496 67.712 29.144C67.44 28.776 66.968 28.464 66.296 28.208C65.64 27.936 64.688 27.664 63.44 27.392C61.968 27.072 60.8 26.704 59.936 26.288C59.072 25.856 58.44 25.336 58.04 24.728C57.64 24.12 57.44 23.368 57.44 22.472C57.44 21.576 57.688 20.792 58.184 20.12C58.696 19.432 59.416 18.904 60.344 18.536C61.272 18.168 62.352 17.984 63.584 17.984C64.752 17.984 65.792 18.152 66.704 18.488C67.632 18.808 68.352 19.272 68.864 19.88C69.392 20.472 69.656 21.144 69.656 21.896C69.656 22.36 69.504 22.728 69.2 23C68.912 23.256 68.456 23.384 67.832 23.384C67.656 22.168 67.224 21.28 66.536 20.72C65.864 20.16 64.88 19.88 63.584 19.88C62.336 19.88 61.376 20.104 60.704 20.552C60.032 20.984 59.696 21.6 59.696 22.4C59.696 22.96 59.816 23.424 60.056 23.792C60.312 24.144 60.736 24.448 61.328 24.704C61.936 24.96 62.784 25.208 63.872 25.448C65.504 25.8 66.784 26.192 67.712 26.624C68.656 27.056 69.336 27.584 69.752 28.208C70.168 28.832 70.376 29.6 70.376 30.512C70.376 31.968 69.768 33.12 68.552 33.968C67.336 34.8 65.712 35.216 63.68 35.216ZM73.1253 19.76C73.1253 19.184 73.3013 18.744 73.6533 18.44C74.0053 18.136 74.5253 17.984 75.2133 17.984V24.296C74.9893 24.552 74.8133 24.776 74.6853 24.968L74.7813 25.064C75.2773 24.392 75.9013 23.848 76.6533 23.432C77.4053 23 78.2213 22.784 79.1013 22.784C80.3973 22.784 81.4213 23.168 82.1733 23.936C82.9253 24.704 83.3013 25.696 83.3013 26.912V33.68C83.3013 34.208 83.1253 34.6 82.7733 34.856C82.4373 35.096 81.9173 35.216 81.2133 35.216V27.128C81.2133 26.36 80.9973 25.752 80.5653 25.304C80.1333 24.856 79.4773 24.632 78.5973 24.632C78.0053 24.632 77.4453 24.76 76.9173 25.016C76.4053 25.256 75.9893 25.592 75.6693 26.024C75.3653 26.44 75.2133 26.896 75.2133 27.392V33.68C75.2133 34.208 75.0373 34.6 74.6853 34.856C74.3493 35.096 73.8293 35.216 73.1253 35.216V19.76ZM90.3984 35.216C89.0224 35.216 87.9104 34.848 87.0624 34.112C86.2304 33.376 85.8144 32.408 85.8144 31.208C85.8144 29.992 86.2544 29.016 87.1344 28.28C88.0144 27.528 89.1744 27.152 90.6144 27.152C92.1504 27.152 93.4144 27.696 94.4064 28.784L94.5024 28.688C94.3264 28.496 94.1264 28.296 93.9024 28.088V27.08C93.9024 26.264 93.6464 25.632 93.1344 25.184C92.6224 24.736 91.8944 24.512 90.9504 24.512C89.2704 24.512 88.0704 25.176 87.3504 26.504C87.0944 26.376 86.8784 26.208 86.7024 26C86.5424 25.776 86.4624 25.552 86.4624 25.328C86.4624 24.896 86.6784 24.488 87.1104 24.104C87.5424 23.704 88.1104 23.384 88.8144 23.144C89.5344 22.904 90.2864 22.784 91.0704 22.784C92.5904 22.784 93.7824 23.16 94.6464 23.912C95.5264 24.664 95.9664 25.704 95.9664 27.032V33.608C95.9664 34.168 95.8064 34.576 95.4864 34.832C95.1664 35.088 94.6624 35.216 93.9744 35.216V34.088C94.3104 33.736 94.4944 33.528 94.5264 33.464L94.4304 33.368C93.3904 34.6 92.0464 35.216 90.3984 35.216ZM90.7584 33.56C91.7504 33.56 92.5264 33.352 93.0864 32.936C93.6624 32.52 93.9504 31.944 93.9504 31.208C93.9504 30.472 93.6704 29.888 93.1104 29.456C92.5504 29.024 91.7824 28.808 90.8064 28.808C89.8944 28.808 89.1744 29.024 88.6464 29.456C88.1344 29.872 87.8784 30.456 87.8784 31.208C87.8784 31.96 88.1264 32.544 88.6224 32.96C89.1344 33.36 89.8464 33.56 90.7584 33.56ZM104.419 24.632C103.523 24.632 102.779 24.904 102.187 25.448C101.595 25.976 101.299 26.624 101.299 27.392V33.68C101.299 34.208 101.123 34.6 100.771 34.856C100.435 35.096 99.9153 35.216 99.2113 35.216V24.56C99.2113 23.376 99.8833 22.784 101.227 22.784V24.248C100.971 24.52 100.795 24.76 100.699 24.968L100.795 25.064C101.819 23.544 103.099 22.784 104.635 22.784C105.211 22.784 105.651 22.928 105.955 23.216C106.259 23.488 106.411 23.824 106.411 24.224C106.411 24.512 106.339 24.768 106.195 24.992C105.747 24.752 105.155 24.632 104.419 24.632ZM110.114 35C109.794 35 109.514 34.888 109.274 34.664C109.05 34.424 108.938 34.144 108.938 33.824V19.856C108.938 18.608 109.69 17.984 111.194 17.984V33.008H118.562C119.122 33.008 119.554 33.184 119.858 33.536C120.162 33.872 120.314 34.36 120.314 35H110.114ZM125.742 35.216C124.366 35.216 123.254 34.848 122.406 34.112C121.574 33.376 121.158 32.408 121.158 31.208C121.158 29.992 121.598 29.016 122.478 28.28C123.358 27.528 124.518 27.152 125.958 27.152C127.494 27.152 128.758 27.696 129.75 28.784L129.846 28.688C129.67 28.496 129.47 28.296 129.246 28.088V27.08C129.246 26.264 128.99 25.632 128.478 25.184C127.966 24.736 127.238 24.512 126.294 24.512C124.614 24.512 123.414 25.176 122.694 26.504C122.438 26.376 122.222 26.208 122.046 26C121.886 25.776 121.806 25.552 121.806 25.328C121.806 24.896 122.022 24.488 122.454 24.104C122.886 23.704 123.454 23.384 124.158 23.144C124.878 22.904 125.63 22.784 126.414 22.784C127.934 22.784 129.126 23.16 129.99 23.912C130.87 24.664 131.31 25.704 131.31 27.032V33.608C131.31 34.168 131.15 34.576 130.83 34.832C130.51 35.088 130.006 35.216 129.318 35.216V34.088C129.654 33.736 129.838 33.528 129.87 33.464L129.774 33.368C128.734 34.6 127.39 35.216 125.742 35.216ZM126.102 33.56C127.094 33.56 127.87 33.352 128.43 32.936C129.006 32.52 129.294 31.944 129.294 31.208C129.294 30.472 129.014 29.888 128.454 29.456C127.894 29.024 127.126 28.808 126.15 28.808C125.238 28.808 124.518 29.024 123.99 29.456C123.478 29.872 123.222 30.456 123.222 31.208C123.222 31.96 123.47 32.544 123.966 32.96C124.478 33.36 125.19 33.56 126.102 33.56ZM134.555 19.616C134.555 18.528 135.259 17.984 136.667 17.984V23.84C136.427 24.048 136.259 24.224 136.163 24.368L136.235 24.488C136.715 23.976 137.299 23.568 137.987 23.264C138.691 22.944 139.379 22.784 140.051 22.784C141.475 22.784 142.611 23.16 143.459 23.912C144.307 24.664 144.731 25.672 144.731 26.936V31.04C144.731 31.84 144.531 32.56 144.131 33.2C143.747 33.84 143.203 34.336 142.499 34.688C141.795 35.04 140.995 35.216 140.099 35.216C138.531 35.216 137.211 34.528 136.139 33.152L136.067 33.248C136.163 33.392 136.323 33.592 136.547 33.848C136.547 34.312 136.387 34.656 136.067 34.88C135.747 35.104 135.243 35.216 134.555 35.216V19.616ZM139.643 33.368C140.619 33.368 141.363 33.16 141.875 32.744C142.403 32.328 142.667 31.728 142.667 30.944V27.032C142.667 26.28 142.403 25.696 141.875 25.28C141.347 24.848 140.611 24.632 139.667 24.632C138.835 24.632 138.123 24.856 137.531 25.304C136.939 25.752 136.643 26.288 136.643 26.912V31.064C136.643 31.72 136.931 32.272 137.507 32.72C138.083 33.152 138.795 33.368 139.643 33.368ZM151.579 35.216C150.763 35.216 149.995 35.096 149.275 34.856C148.555 34.6 147.971 34.24 147.523 33.776C147.091 33.312 146.875 32.768 146.875 32.144C146.875 31.376 147.339 30.96 148.267 30.896C148.427 31.792 148.803 32.456 149.395 32.888C150.003 33.304 150.771 33.512 151.699 33.512C152.627 33.512 153.347 33.376 153.859 33.104C154.371 32.832 154.627 32.416 154.627 31.856C154.627 31.456 154.523 31.136 154.315 30.896C154.107 30.64 153.771 30.424 153.307 30.248C152.859 30.056 152.211 29.872 151.363 29.696C150.307 29.456 149.467 29.2 148.843 28.928C148.219 28.656 147.739 28.296 147.403 27.848C147.083 27.4 146.923 26.808 146.923 26.072C146.923 25.448 147.115 24.888 147.499 24.392C147.883 23.88 148.411 23.488 149.083 23.216C149.771 22.928 150.547 22.784 151.411 22.784C152.211 22.784 152.963 22.896 153.667 23.12C154.387 23.344 154.963 23.664 155.395 24.08C155.843 24.496 156.067 24.976 156.067 25.52C156.067 25.888 155.923 26.184 155.635 26.408C155.347 26.616 154.947 26.736 154.435 26.768C154.387 26.064 154.099 25.512 153.571 25.112C153.059 24.696 152.339 24.488 151.411 24.488C150.643 24.488 150.035 24.632 149.587 24.92C149.139 25.208 148.915 25.592 148.915 26.072C148.915 26.584 149.123 26.968 149.539 27.224C149.971 27.464 150.699 27.696 151.723 27.92C153.403 28.256 154.635 28.72 155.419 29.312C156.219 29.888 156.619 30.712 156.619 31.784C156.619 32.872 156.179 33.72 155.299 34.328C154.419 34.92 153.179 35.216 151.579 35.216Z" fill="#5237F7"/>
<defs>
<linearGradient id="paint0_linear_4_6" x1="0" y1="25" x2="50" y2="25" gradientUnits="userSpaceOnUse">
<stop stop-color="#8D3DDD"/>
<stop offset="1" stop-color="#1761A0"/>
</linearGradient>
</defs>
</svg>
